grf
version=1
nRows=28
nColumns=46
inDegrees=yes
endheader
time	ground_force_1_vx	ground_force_1_vy	ground_force_1_vz	ground_force_1_px	ground_force_1_py	ground_force_1_pz	ground_moment_1_mx	ground_moment_1_my	ground_moment_1_mz	ground_force_2_vx	ground_force_2_vy	ground_force_2_vz	ground_force_2_px	ground_force_2_py	ground_force_2_pz	ground_moment_2_mx	ground_moment_2_my	ground_moment_2_mz	ground_force_3_vx	ground_force_3_vy	ground_force_3_vz	ground_force_3_px	ground_force_3_py	ground_force_3_pz	ground_moment_3_mx	ground_moment_3_my	ground_moment_3_mz	ground_force_4_vx	ground_force_4_vy	ground_force_4_vz	ground_force_4_px	ground_force_4_py	ground_force_4_pz	ground_moment_4_mx	ground_moment_4_my	ground_moment_4_mz	ground_force_5_vx	ground_force_5_vy	ground_force_5_vz	ground_force_5_px	ground_force_5_py	ground_force_5_pz	ground_moment_5_mx	ground_moment_5_my	ground_moment_5_mz
2.980000	0.000000	0.000000	0.000000	0.000000	0.000000	0.000000	0.000000	0.000000	0.000000	0.000000	0.000000	0.000000	0.000000	0.000000	0.000000	0.000000	0.000000	0.000000	0.000000	0.000000	0.000000	0.000000	0.000000	0.000000	0.000000	0.000000	0.000000	3.551507	567.412575	-32.641777	0.200676	0.000000	-1.075685	0.000000	3.218421	0.000000	-3.881480	469.549537	23.721854	0.238192	0.000000	-1.398270	-0.000000	-1.453586	-0.000000
2.980500	0.000000	0.000000	0.000000	0.000000	0.000000	0.000000	0.000000	0.000000	0.000000	0.000000	0.000000	0.000000	0.000000	0.000000	0.000000	0.000000	0.000000	0.000000	0.000000	0.000000	0.000000	0.000000	0.000000	0.000000	0.000000	0.000000	0.000000	3.580916	567.221635	-32.660130	0.200724	0.000000	-1.075646	0.000000	3.224137	0.000000	-3.844948	469.745841	23.732632	0.238195	0.000000	-1.398267	-0.000000	-1.455338	-0.000000
2.981000	0.000000	0.000000	0.000000	0.000000	0.000000	0.000000	0.000000	0.000000	0.000000	0.000000	0.000000	0.000000	0.000000	0.000000	0.000000	0.000000	0.000000	0.000000	0.000000	0.000000	0.000000	0.000000	0.000000	0.000000	0.000000	0.000000	0.000000	3.609762	567.037854	-32.678318	0.200770	0.000000	-1.075607	0.000000	3.229857	0.000000	-3.806701	469.950631	23.742440	0.238196	0.000000	-1.398262	-0.000000	-1.457130	-0.000000
2.981500	0.000000	0.000000	0.000000	0.000000	0.000000	0.000000	0.000000	0.000000	0.000000	0.000000	0.000000	0.000000	0.000000	0.000000	0.000000	0.000000	0.000000	0.000000	0.000000	0.000000	0.000000	0.000000	0.000000	0.000000	0.000000	0.000000	0.000000	3.638049	566.861368	-32.696329	0.200817	0.000000	-1.075568	0.000000	3.235576	0.000000	-3.766778	470.163922	23.751285	0.238194	0.000000	-1.398256	-0.000000	-1.458967	-0.000000
2.982000	0.000000	0.000000	0.000000	0.000000	0.000000	0.000000	0.000000	0.000000	0.000000	0.000000	0.000000	0.000000	0.000000	0.000000	0.000000	0.000000	0.000000	0.000000	0.000000	0.000000	0.000000	0.000000	0.000000	0.000000	0.000000	0.000000	0.000000	3.665781	566.692294	-32.714149	0.200863	0.000000	-1.075530	0.000000	3.241290	0.000000	-3.725212	470.385717	23.759175	0.238191	0.000000	-1.398250	-0.000000	-1.460854	-0.000000
2.982500	0.000000	0.000000	0.000000	0.000000	0.000000	0.000000	0.000000	0.000000	0.000000	0.000000	0.000000	0.000000	0.000000	0.000000	0.000000	0.000000	0.000000	0.000000	0.000000	0.000000	0.000000	0.000000	0.000000	0.000000	0.000000	0.000000	0.000000	3.692956	566.530741	-32.731767	0.200909	0.000000	-1.075492	0.000000	3.246994	0.000000	-3.682035	470.615997	23.766123	0.238185	0.000000	-1.398242	-0.000000	-1.462797	-0.000000
2.983000	0.000000	0.000000	0.000000	0.000000	0.000000	0.000000	0.000000	0.000000	0.000000	0.000000	0.000000	0.000000	0.000000	0.000000	0.000000	0.000000	0.000000	0.000000	0.000000	0.000000	0.000000	0.000000	0.000000	0.000000	0.000000	0.000000	0.000000	3.719567	566.376815	-32.749170	0.200954	0.000000	-1.075455	0.000000	3.252680	0.000000	-3.637276	470.854713	23.772144	0.238177	0.000000	-1.398233	-0.000000	-1.464798	-0.000000
2.983500	0.000000	0.000000	0.000000	0.000000	0.000000	0.000000	0.000000	0.000000	0.000000	0.000000	0.000000	0.000000	0.000000	0.000000	0.000000	0.000000	0.000000	0.000000	0.000000	0.000000	0.000000	0.000000	0.000000	0.000000	0.000000	0.000000	0.000000	3.745601	566.230630	-32.766347	0.200999	0.000000	-1.075418	0.000000	3.258341	0.000000	-3.590960	471.101785	23.777255	0.238168	0.000000	-1.398223	-0.000000	-1.466861	-0.000000
2.984000	0.000000	0.000000	0.000000	0.000000	0.000000	0.000000	0.000000	0.000000	0.000000	0.000000	0.000000	0.000000	0.000000	0.000000	0.000000	0.000000	0.000000	0.000000	0.000000	0.000000	0.000000	0.000000	0.000000	0.000000	0.000000	0.000000	0.000000	3.771037	566.092300	-32.783289	0.201043	0.000000	-1.075382	0.000000	3.263968	0.000000	-3.543111	471.357105	23.781480	0.238156	0.000000	-1.398212	-0.000000	-1.468985	-0.000000
2.984500	0.000000	0.000000	0.000000	0.000000	0.000000	0.000000	0.000000	0.000000	0.000000	0.000000	0.000000	0.000000	0.000000	0.000000	0.000000	0.000000	0.000000	0.000000	0.000000	0.000000	0.000000	0.000000	0.000000	0.000000	0.000000	0.000000	0.000000	3.795851	565.961944	-32.799991	0.201087	0.000000	-1.075346	0.000000	3.269555	0.000000	-3.493746	471.620541	23.784848	0.238143	0.000000	-1.398200	-0.000000	-1.471172	-0.000000
2.985000	0.000000	0.000000	0.000000	0.000000	0.000000	0.000000	0.000000	0.000000	0.000000	0.000000	0.000000	0.000000	0.000000	0.000000	0.000000	0.000000	0.000000	0.000000	0.000000	0.000000	0.000000	0.000000	0.000000	0.000000	0.000000	0.000000	0.000000	3.820015	565.839688	-32.816453	0.201130	0.000000	-1.075310	0.000000	3.275090	0.000000	-3.442885	471.891931	23.787389	0.238127	0.000000	-1.398187	-0.000000	-1.473421	-0.000000
2.985500	0.000000	0.000000	0.000000	0.000000	0.000000	0.000000	0.000000	0.000000	0.000000	0.000000	0.000000	0.000000	0.000000	0.000000	0.000000	0.000000	0.000000	0.000000	0.000000	0.000000	0.000000	0.000000	0.000000	0.000000	0.000000	0.000000	0.000000	3.843497	565.725658	-32.832671	0.201173	0.000000	-1.075276	-0.000000	3.280567	0.000000	-3.390546	472.171089	23.789132	0.238110	0.000000	-1.398172	-0.000000	-1.475733	-0.000000
2.986000	0.000000	0.000000	0.000000	0.000000	0.000000	0.000000	0.000000	0.000000	0.000000	0.000000	0.000000	0.000000	0.000000	0.000000	0.000000	0.000000	0.000000	0.000000	0.000000	0.000000	0.000000	0.000000	0.000000	0.000000	0.000000	0.000000	0.000000	3.866263	565.619983	-32.848642	0.201215	0.000000	-1.075242	-0.000000	3.285976	0.000000	-3.336754	472.457813	23.790099	0.238091	0.000000	-1.398156	-0.000000	-1.478110	-0.000000
2.986500	0.000000	0.000000	0.000000	0.000000	0.000000	0.000000	0.000000	0.000000	0.000000	0.000000	0.000000	0.000000	0.000000	0.000000	0.000000	0.000000	0.000000	0.000000	0.000000	0.000000	0.000000	0.000000	0.000000	0.000000	0.000000	0.000000	0.000000	3.888283	565.522792	-32.864355	0.201256	0.000000	-1.075208	-0.000000	3.291312	0.000000	-3.281541	472.751884	23.790314	0.238070	0.000000	-1.398139	-0.000000	-1.480552	-0.000000
2.987000	0.000000	0.000000	0.000000	0.000000	0.000000	0.000000	0.000000	0.000000	0.000000	0.000000	0.000000	0.000000	0.000000	0.000000	0.000000	0.000000	0.000000	0.000000	0.000000	0.000000	0.000000	0.000000	0.000000	0.000000	0.000000	0.000000	0.000000	3.909531	565.434206	-32.879799	0.201297	0.000000	-1.075175	-0.000000	3.296567	0.000000	-3.224940	473.053074	23.789800	0.238048	0.000000	-1.398121	-0.000000	-1.483062	-0.000000
2.987500	0.000000	0.000000	0.000000	0.000000	0.000000	0.000000	0.000000	0.000000	0.000000	0.000000	0.000000	0.000000	0.000000	0.000000	0.000000	0.000000	0.000000	0.000000	0.000000	0.000000	0.000000	0.000000	0.000000	0.000000	0.000000	0.000000	0.000000	3.929982	565.354339	-32.894967	0.201337	0.000000	-1.075142	-0.000000	3.301739	0.000000	-3.166984	473.361138	23.788581	0.238023	0.000000	-1.398102	-0.000000	-1.485640	-0.000000
2.988000	0.000000	0.000000	0.000000	0.000000	0.000000	0.000000	0.000000	0.000000	0.000000	0.000000	0.000000	0.000000	0.000000	0.000000	0.000000	0.000000	0.000000	0.000000	0.000000	0.000000	0.000000	0.000000	0.000000	0.000000	0.000000	0.000000	0.000000	3.949613	565.283282	-32.909856	0.201376	0.000000	-1.075111	-0.000000	3.306824	0.000000	-3.107710	473.675818	23.786687	0.237998	0.000000	-1.398082	-0.000000	-1.488290	-0.000000
2.988500	0.000000	0.000000	0.000000	0.000000	0.000000	0.000000	0.000000	0.000000	0.000000	0.000000	0.000000	0.000000	0.000000	0.000000	0.000000	0.000000	0.000000	0.000000	0.000000	0.000000	0.000000	0.000000	0.000000	0.000000	0.000000	0.000000	0.000000	3.968402	565.221111	-32.924462	0.201415	0.000000	-1.075079	-0.000000	3.311820	0.000000	-3.047157	473.996837	23.784150	0.237971	0.000000	-1.398061	-0.000000	-1.491012	-0.000000
2.989000	0.000000	0.000000	0.000000	0.000000	0.000000	0.000000	0.000000	0.000000	0.000000	0.000000	0.000000	0.000000	0.000000	0.000000	0.000000	0.000000	0.000000	0.000000	0.000000	0.000000	0.000000	0.000000	0.000000	0.000000	0.000000	0.000000	0.000000	3.986333	565.167883	-32.938782	0.201453	0.000000	-1.075049	-0.000000	3.316727	0.000000	-2.985366	474.323895	23.781011	0.237942	0.000000	-1.398039	-0.000000	-1.493808	-0.000000
2.989500	0.000000	0.000000	0.000000	0.000000	0.000000	0.000000	0.000000	0.000000	0.000000	0.000000	0.000000	0.000000	0.000000	0.000000	0.000000	0.000000	0.000000	0.000000	0.000000	0.000000	0.000000	0.000000	0.000000	0.000000	0.000000	0.000000	0.000000	4.003401	565.123641	-32.952808	0.201490	0.000000	-1.075019	-0.000000	3.321543	0.000000	-2.922386	474.656670	23.777316	0.237912	0.000000	-1.398016	-0.000000	-1.496680	-0.000000
2.990000	0.000000	0.000000	0.000000	0.000000	0.000000	0.000000	0.000000	0.000000	0.000000	0.000000	0.000000	0.000000	0.000000	0.000000	0.000000	0.000000	0.000000	0.000000	0.000000	0.000000	0.000000	0.000000	0.000000	0.000000	0.000000	0.000000	0.000000	4.019609	565.088412	-32.966532	0.201526	0.000000	-1.074990	-0.000000	3.326271	0.000000	-2.858266	474.994820	23.773110	0.237881	0.000000	-1.397992	-0.000000	-1.499629	-0.000000
2.990500	0.000000	0.000000	0.000000	0.000000	0.000000	0.000000	0.000000	0.000000	0.000000	0.000000	0.000000	0.000000	0.000000	0.000000	0.000000	0.000000	0.000000	0.000000	0.000000	0.000000	0.000000	0.000000	0.000000	0.000000	0.000000	0.000000	0.000000	4.034970	565.062204	-32.979945	0.201562	0.000000	-1.074961	-0.000000	3.330912	0.000000	-2.793060	475.337979	23.768433	0.237849	0.000000	-1.397967	-0.000000	-1.502655	-0.000000
2.991000	0.000000	0.000000	0.000000	0.000000	0.000000	0.000000	0.000000	0.000000	0.000000	0.000000	0.000000	0.000000	0.000000	0.000000	0.000000	0.000000	0.000000	0.000000	0.000000	0.000000	0.000000	0.000000	0.000000	0.000000	0.000000	0.000000	0.000000	4.049501	565.045006	-32.993041	0.201597	0.000000	-1.074933	-0.000000	3.335471	0.000000	-2.726824	475.685760	23.763322	0.237816	0.000000	-1.397942	-0.000000	-1.505758	-0.000000
2.991500	0.000000	0.000000	0.000000	0.000000	0.000000	0.000000	0.000000	0.000000	0.000000	0.000000	0.000000	0.000000	0.000000	0.000000	0.000000	0.000000	0.000000	0.000000	0.000000	0.000000	0.000000	0.000000	0.000000	0.000000	0.000000	0.000000	0.000000	4.063223	565.036795	-33.005819	0.201632	0.000000	-1.074906	-0.000000	3.339949	0.000000	-2.659614	476.037755	23.757809	0.237782	0.000000	-1.397916	-0.000000	-1.508935	-0.000000
2.992000	0.000000	0.000000	0.000000	0.000000	0.000000	0.000000	0.000000	0.000000	0.000000	0.000000	0.000000	0.000000	0.000000	0.000000	0.000000	0.000000	0.000000	0.000000	0.000000	0.000000	0.000000	0.000000	0.000000	0.000000	0.000000	0.000000	0.000000	4.076150	565.037543	-33.018280	0.201665	0.000000	-1.074879	-0.000000	3.344350	0.000000	-2.591488	476.393539	23.751928	0.237747	0.000000	-1.397890	0.000000	-1.512182	-0.000000
2.992500	0.000000	0.000000	0.000000	0.000000	0.000000	0.000000	0.000000	0.000000	0.000000	0.000000	0.000000	0.000000	0.000000	0.000000	0.000000	0.000000	0.000000	0.000000	0.000000	0.000000	0.000000	0.000000	0.000000	0.000000	0.000000	0.000000	0.000000	4.088301	565.047224	-33.030424	0.201698	0.000000	-1.074853	-0.000000	3.348678	0.000000	-2.522509	476.752673	23.745716	0.237712	0.000000	-1.397864	0.000000	-1.515493	-0.000000
2.993000	0.000000	0.000000	0.000000	0.000000	0.000000	0.000000	0.000000	0.000000	0.000000	0.000000	0.000000	0.000000	0.000000	0.000000	0.000000	0.000000	0.000000	0.000000	0.000000	0.000000	0.000000	0.000000	0.000000	0.000000	0.000000	0.000000	0.000000	4.099699	565.065820	-33.042253	0.201731	0.000000	-1.074828	-0.000000	3.352939	0.000000	-2.452747	477.114701	23.739212	0.237675	0.000000	-1.397837	0.000000	-1.518862	-0.000000
2.993500	0.000000	0.000000	0.000000	0.000000	0.000000	0.000000	0.000000	0.000000	0.000000	0.000000	0.000000	0.000000	0.000000	0.000000	0.000000	0.000000	0.000000	0.000000	0.000000	0.000000	0.000000	0.000000	0.000000	0.000000	0.000000	0.000000	0.000000	4.110368	565.093311	-33.053767	0.201762	0.000000	-1.074803	-0.000000	3.357135	0.000000	-2.382276	477.479153	23.732457	0.237638	0.000000	-1.397809	0.000000	-1.522280	-0.000000
